HIERARCHY
ROOT joint_Root
{
	OFFSET 0.0 0.0 0.0
	CHANNELS 6 Xposition Yposition Zposition Zrotation Xrotation Yrotation 
	JOINT Hips
	{
		OFFSET 4.5925 91.4895 -427.239
		CHANNELS 6 Xposition Yposition Zposition Zrotation Xrotation Yrotation 
		JOINT Spine
		{
			OFFSET 15.7357 0.0 0.0
			CHANNELS 6 Xposition Yposition Zposition Zrotation Xrotation Yrotation 
			JOINT Chest
			{
				OFFSET 8.98455 -0.406207 0.0
				CHANNELS 6 Xposition Yposition Zposition Zrotation Xrotation Yrotation 
				JOINT Neck
				{
					OFFSET 16.3773 0.0 0.0
					CHANNELS 6 Xposition Yposition Zposition Zrotation Xrotation Yrotation 
					JOINT Head
					{
						OFFSET 6.45672 0.0 0.0
						CHANNELS 6 Xposition Yposition Zposition Zrotation Xrotation Yrotation 
						End Site
						{
							OFFSET 0.0 0.0 0.0
						}
					}
				}
				JOINT Shoulder_L
				{
					OFFSET 12.9942 -0.242716 4.98039
					CHANNELS 6 Xposition Yposition Zposition Zrotation Xrotation Yrotation 
					JOINT UpperArm_L
					{
						OFFSET 5.34809 0.0 0.0
						CHANNELS 6 Xposition Yposition Zposition Zrotation Xrotation Yrotation 
						JOINT LowerArm_L
						{
							OFFSET 24.3286 1.87007e-05 0.0
							CHANNELS 6 Xposition Yposition Zposition Zrotation Xrotation Yrotation 
							JOINT Hand_L
							{
								OFFSET 22.2916 0.0 0.0
								CHANNELS 6 Xposition Yposition Zposition Zrotation Xrotation Yrotation 
								End Site
								{
									OFFSET 0.0 0.0 0.0
								}
							}
						}
					}
				}
				JOINT Shoulder_R
				{
					OFFSET 12.9945 -0.242716 -4.98039
					CHANNELS 6 Xposition Yposition Zposition Zrotation Xrotation Yrotation 
					JOINT UpperArm_R
					{
						OFFSET -5.34813 0.0 0.0
						CHANNELS 6 Xposition Yposition Zposition Zrotation Xrotation Yrotation 
						JOINT LowerArm_R
						{
							OFFSET -24.3289 0.000322201 0.0
							CHANNELS 6 Xposition Yposition Zposition Zrotation Xrotation Yrotation 
							JOINT Hand_R
							{
								OFFSET -22.2915 -0.000108084 0.0
								CHANNELS 6 Xposition Yposition Zposition Zrotation Xrotation Yrotation 
								End Site
								{
									OFFSET 0.0 0.0 0.0
								}
							}
						}
					}
				}
			}
		}
		JOINT UpperLeg_L
		{
			OFFSET -2.19248 -6.46944 0.0
			CHANNELS 6 Xposition Yposition Zposition Zrotation Xrotation Yrotation 
			JOINT LowerLeg_L
			{
				OFFSET 39.0811 0.0 -1.23785e-05
				CHANNELS 6 Xposition Yposition Zposition Zrotation Xrotation Yrotation 
				JOINT Foot_L
				{
					OFFSET 40.9854 0.0 -1.26872e-05
					CHANNELS 6 Xposition Yposition Zposition Zrotation Xrotation Yrotation 
					JOINT Toes_L
					{
						OFFSET 11.7543 0.0 0.0
						CHANNELS 6 Xposition Yposition Zposition Zrotation Xrotation Yrotation 
						End Site
						{
							OFFSET 0.0 0.0 0.0
						}
					}
				}
			}
		}
		JOINT UpperLeg_R
		{
			OFFSET -2.19251 6.46944 0.0
			CHANNELS 6 Xposition Yposition Zposition Zrotation Xrotation Yrotation 
			JOINT LowerLeg_R
			{
				OFFSET -39.0811 -0.00228153 -0.0401928
				CHANNELS 6 Xposition Yposition Zposition Zrotation Xrotation Yrotation 
				JOINT Foot_R
				{
					OFFSET -40.9854 0.0 0.0
					CHANNELS 6 Xposition Yposition Zposition Zrotation Xrotation Yrotation 
					JOINT Toes_R
					{
						OFFSET -11.7543 0.0 0.0
						CHANNELS 6 Xposition Yposition Zposition Zrotation Xrotation Yrotation 
						End Site
						{
							OFFSET 0.0 0.0 0.0
						}
					}
				}
			}
		}
	}
}
MOTION
Frames:	4
Frame Time:	0.0333333
0.000000 0.000000 0.000000 0.000000 0.000000 -0.000000 98.018100 89.675200 177.659000 -75.895700 50.283000 166.890000 15.735700 0.000005 -0.000001 68.671700 85.325900 -67.523900 8.984550 -0.406207 -0.000000 0.980034 -3.466660 2.323880 16.377300 -0.000001 -0.000001 -3.559230 0.903701 0.163583 6.456720 -0.000001 -0.000000 -7.646860 5.486850 -0.863105 12.994200 -0.242716 4.980390 -90.565300 2.073710 -74.747800 5.348090 -0.000007 -0.000001 -51.587400 50.483600 -41.422900 24.328600 0.000019 0.000005 19.338600 13.410800 -56.540700 22.291600 -0.000001 0.000005 10.892100 5.319160 -0.471593 12.994500 -0.242716 -4.980390 88.105600 8.755510 -77.740500 -5.348130 -0.000001 -0.000004 -70.796800 13.890300 6.557030 -24.328900 0.000322 -0.000009 0.981205 7.188290 -7.799610 -22.291500 -0.000108 -0.000004 10.444400 5.284000 0.515689 -2.192480 -6.469440 -0.000000 177.111000 3.202410 1.252160 39.081100 -0.000007 -0.000012 0.013803 -0.030268 24.514400 40.985400 -0.000006 -0.000013 20.960000 6.255440 -72.109700 11.754300 -0.000000 0.000003 -1.986490 -2.343190 -21.020100 -2.192510 6.469440 -0.000001 173.948000 -5.908220 158.515000 -39.081100 -0.002282 -0.040193 0.027409 -0.036045 33.784300 -40.985400 0.000008 0.000006 4.579320 1.500080 -60.615900 -11.754300 -0.000006 -0.000006 -0.020074 -0.167698 -23.424700
0.000000 0.000000 0.000000 0.000000 0.000000 -0.000000 100.476000 89.583300 176.404000 -76.419600 47.409800 166.561000 15.735700 0.000005 -0.000001 66.465400 85.256000 -65.159100 8.984550 -0.406207 -0.000000 0.981068 -3.864410 2.644260 16.377300 -0.000001 -0.000001 -3.765470 0.976853 0.455155 6.456720 -0.000001 -0.000000 -7.831100 5.810330 -0.081396 12.994200 -0.242716 4.980390 -90.476600 1.770690 -74.933400 5.348090 -0.000007 -0.000001 -49.625500 51.031300 -43.668300 24.328600 0.000019 0.000005 20.069800 11.865100 -60.630800 22.291600 -0.000001 0.000005 11.204100 5.328540 -0.742672 12.994500 -0.242716 -4.980390 88.137500 8.514190 -77.612200 -5.348130 -0.000001 -0.000004 -72.292500 12.563200 7.772730 -24.328900 0.000322 -0.000009 0.745397 7.218800 -5.920930 -22.291500 -0.000108 -0.000004 10.221000 5.259920 1.169680 -2.192480 -6.469440 -0.000000 178.340000 4.010480 1.750820 39.081100 -0.000007 -0.000012 0.017489 -0.037319 25.108600 40.985400 -0.000006 -0.000013 20.975600 8.425140 -72.184900 11.754300 -0.000000 0.000003 -1.544170 -1.744130 -22.111200 -2.192510 6.469440 -0.000001 176.214000 -1.958590 155.661000 -39.081100 -0.002282 -0.040193 0.015263 -0.020670 30.055800 -40.985400 0.000008 0.000006 3.150340 5.808800 -61.434300 -11.754300 -0.000006 -0.000006 -0.019686 -0.165543 -23.336000
0.000000 0.000000 0.000000 0.000000 0.000000 -0.000000 103.267000 89.327600 174.923000 -76.622500 45.135600 166.392000 15.735700 0.000005 -0.000001 65.066200 85.066500 -63.539900 8.984550 -0.406207 -0.000000 1.243620 -4.244580 3.097180 16.377300 -0.000001 -0.000001 -3.810440 1.115610 0.673296 6.456720 -0.000001 -0.000000 -7.986950 6.056760 0.604048 12.994200 -0.242716 4.980390 -90.417800 1.560470 -75.008100 5.348090 -0.000007 -0.000001 -48.697300 51.146700 -44.012300 24.328600 0.000019 0.000005 20.209800 10.492300 -63.679700 22.291600 -0.000001 0.000005 11.797900 5.335670 -0.951134 12.994500 -0.242716 -4.980390 88.150200 8.480440 -77.647100 -5.348130 -0.000001 -0.000004 -73.369100 13.755100 8.143760 -24.328900 0.000322 -0.000009 0.735873 8.702650 -4.859780 -22.291500 -0.000108 -0.000004 9.595340 5.238060 1.746920 -2.192480 -6.469440 -0.000000 179.725000 4.274330 2.297060 39.081100 -0.000007 -0.000012 0.019059 -0.037664 26.841000 40.985400 -0.000006 -0.000013 20.813300 10.558400 -72.518700 11.754300 -0.000000 0.000003 -0.020494 -0.170021 -23.524200 -2.192510 6.469440 -0.000001 -179.346000 4.951800 153.106000 -39.081100 -0.002282 -0.040193 -0.009976 0.025188 27.802900 -40.985400 0.000008 0.000006 0.470181 11.334500 -62.339400 -11.754300 -0.000006 -0.000006 -0.020272 -0.168788 -23.469600
0.000000 0.000000 0.000000 0.000000 0.000000 -0.000000 106.336000 88.854500 173.036000 -76.987600 43.414100 166.824000 15.735700 0.000005 -0.000001 64.420800 84.806200 -62.735600 8.984550 -0.406207 -0.000000 1.678590 -4.571980 3.435740 16.377300 -0.000001 -0.000001 -3.594300 1.249820 0.913101 6.456720 -0.000001 -0.000000 -8.030220 6.220520 1.048500 12.994200 -0.242716 4.980390 -90.385100 1.440430 -75.030400 5.348090 -0.000007 -0.000001 -48.430700 51.144400 -42.969200 24.328600 0.000019 0.000005 19.601400 9.498080 -65.138100 22.291600 -0.000001 0.000005 12.361300 5.345180 -1.232610 12.994500 -0.242716 -4.980390 88.101800 8.695360 -77.635100 -5.348130 -0.000001 -0.000004 -73.775300 15.533300 7.948040 -24.328900 0.000322 -0.000009 0.861319 10.317300 -4.803700 -22.291500 -0.000108 -0.000004 8.730780 5.225680 2.066800 -2.192480 -6.469440 -0.000000 -179.185000 4.004510 2.985700 39.081100 -0.000007 -0.000012 0.020969 -0.036846 29.643500 40.985400 -0.000006 -0.000013 20.582900 12.732800 -72.194000 11.754300 -0.000000 0.000003 -0.044071 -0.275960 -27.925200 -2.192510 6.469440 -0.000001 -174.850000 10.416500 150.171000 -39.081100 -0.002282 -0.040193 -0.006645 0.018244 28.606800 -40.985400 0.000008 0.000006 -3.714410 16.863200 -61.403700 -11.754300 -0.000006 -0.000006 -0.022792 -0.182288 -24.026400
